<svg width="25" height="25" viewBox="0 0 25 25" fill="none" xmlns="http://www.w3.org/2000/svg">
<path d="M9.13159 18.4507V5.45068L12.1316 4.95068L15.1316 4.45068L21.1316 3.45068V16.4507" stroke="#676767" stroke-width="2" stroke-linecap="round" stroke-linejoin="round"/>
<path d="M10 7L12.75 6.5L15.5 6L21 5" stroke="#676767" stroke-width="2" stroke-linecap="round" stroke-linejoin="round"/>
<path d="M6.13159 21.4507C7.78845 21.4507 9.13159 20.1075 9.13159 18.4507C9.13159 16.7938 7.78845 15.4507 6.13159 15.4507C4.47474 15.4507 3.13159 16.7938 3.13159 18.4507C3.13159 20.1075 4.47474 21.4507 6.13159 21.4507Z" fill="#676767" stroke="#676767" stroke-width="2" stroke-linecap="round" stroke-linejoin="round"/>
<path d="M18.1316 19.4507C19.7884 19.4507 21.1316 18.1075 21.1316 16.4507C21.1316 14.7938 19.7884 13.4507 18.1316 13.4507C16.4747 13.4507 15.1316 14.7938 15.1316 16.4507C15.1316 18.1075 16.4747 19.4507 18.1316 19.4507Z" fill="#676767" stroke="#676767" stroke-width="2" stroke-linecap="round" stroke-linejoin="round"/>
</svg>
