<svg width="24" height="24" viewBox="0 0 24 24" fill="none" xmlns="http://www.w3.org/2000/svg">
<path d="M21 16V3L18 3.5L15 4L12 4.5L9 5V8.5" stroke="#676767" stroke-width="2" stroke-linecap="round" stroke-linejoin="round"/>
<path d="M9 18V13" stroke="#676767" stroke-width="2" stroke-linecap="round" stroke-linejoin="round"/>
<path d="M4 4L8.5 8.25L13 12.5L22 21" stroke="#676767" stroke-width="2" stroke-linecap="round" stroke-linejoin="round"/>
<path d="M9.86841 6.54932L12.6184 6.04932L15.3684 5.54932L20.8684 4.54932" stroke="#676767" stroke-width="2" stroke-linecap="round" stroke-linejoin="round"/>
<path d="M6 21C7.65685 21 9 19.6569 9 18C9 16.3431 7.65685 15 6 15C4.34315 15 3 16.3431 3 18C3 19.6569 4.34315 21 6 21Z" fill="#676767" stroke="#676767" stroke-width="2" stroke-linecap="round" stroke-linejoin="round"/>
<path fill-rule="evenodd" clip-rule="evenodd" d="M16.1093 15.002C15.9143 14.7836 15.6877 14.594 15.4368 14.4402C15.9635 13.5766 16.9143 13 17.9999 13C19.6568 13 20.9999 14.3431 20.9999 16C20.9999 16.977 20.5329 17.8449 19.81 18.3926C19.6575 17.6512 19.2316 17.0097 18.6422 16.578C18.1517 15.6686 17.2055 15.0413 16.1093 15.002Z" fill="#676767"/>
<path d="M15.4368 14.4402L14.583 13.9196C14.2959 14.3904 14.4441 15.0047 14.9143 15.2929L15.4368 14.4402ZM16.1093 15.002L15.3636 15.6682C15.545 15.8713 15.8014 15.9916 16.0735 16.0013L16.1093 15.002ZM19.81 18.3926L18.8305 18.594C18.8996 18.9304 19.1365 19.2077 19.4579 19.3286C19.7793 19.4495 20.1402 19.397 20.4139 19.1897L19.81 18.3926ZM18.6422 16.578L17.762 17.0527C17.8326 17.1835 17.9314 17.297 18.0513 17.3848L18.6422 16.578ZM14.9143 15.2929C15.0816 15.3954 15.2331 15.5221 15.3636 15.6682L16.8551 14.3357C16.5954 14.0451 16.2937 13.7925 15.9593 13.5876L14.9143 15.2929ZM17.9999 12C16.5513 12 15.2837 12.7707 14.583 13.9196L16.2905 14.9609C16.6432 14.3825 17.2774 14 17.9999 14V12ZM21.9999 16C21.9999 13.7909 20.209 12 17.9999 12V14C19.1045 14 19.9999 14.8954 19.9999 16H21.9999ZM20.4139 19.1897C21.3756 18.461 21.9999 17.3032 21.9999 16H19.9999C19.9999 16.6507 19.6902 17.2287 19.2061 17.5956L20.4139 19.1897ZM20.7895 18.1912C20.5857 17.2001 20.0169 16.3453 19.233 15.7712L18.0513 17.3848C18.4462 17.674 18.7294 18.1024 18.8305 18.594L20.7895 18.1912ZM16.0735 16.0013C16.802 16.0274 17.4337 16.4439 17.762 17.0527L19.5223 16.1033C18.8697 14.8933 17.6089 14.0551 16.1452 14.0026L16.0735 16.0013Z" fill="#676767"/>
</svg>
